<svg width="17" height="13" viewBox="0 0 17 13" fill="none" xmlns="http://www.w3.org/2000/svg">
<path d="M2.23145 0C2.23099 0 2.23048 0 2.23003 0C2.07073 0 1.9209 0.060682 1.80776 0.170963C1.69338 0.282462 1.63037 0.430926 1.63037 0.588976V9.42057C1.63037 9.74443 1.90105 10.0085 2.23383 10.0094C3.63674 10.0126 5.98716 10.2984 7.60863 11.9565V2.71401C7.60863 2.60423 7.57994 2.5011 7.52578 2.41575C6.19495 0.321421 3.63753 0.00321421 2.23145 0Z" fill="white"/>
<path d="M14.6738 9.42062V0.588976C14.6738 0.430926 14.6108 0.282462 14.4964 0.170963C14.3833 0.060682 14.2333 0 14.0742 0C14.0737 0 14.0732 0 14.0727 0C12.6667 0.00326963 10.1093 0.321476 8.77835 2.41581C8.7242 2.50115 8.69556 2.60428 8.69556 2.71407V11.9565C10.317 10.2984 12.6675 10.0126 14.0704 10.0094C14.4031 10.0085 14.6738 9.74443 14.6738 9.42062Z" fill="white"/>
<path d="M15.7063 2.17389H15.2726V9.4095C15.2726 10.2198 14.5883 10.8805 13.7471 10.8825C12.566 10.8852 10.6185 11.108 9.23926 12.3674C11.6247 11.804 14.1393 12.1702 15.5724 12.4853C15.7514 12.5246 15.9363 12.484 16.0797 12.3738C16.2225 12.2638 16.3045 12.0994 16.3045 11.923V2.75093C16.3045 2.43276 16.0361 2.17389 15.7063 2.17389Z" fill="white"/>
<path d="M1.0319 9.40959V2.17389H0.598131C0.268388 2.17389 0 2.43276 0 2.75094V11.9229C0 12.0994 0.0819573 12.2638 0.22482 12.3737C0.368076 12.4839 0.552818 12.5247 0.732043 12.4853C2.16517 12.1701 4.6799 11.8039 7.06522 12.3674C5.68602 11.108 3.73852 10.8853 2.5574 10.8826C1.71626 10.8806 1.0319 10.2199 1.0319 9.40959Z" fill="white"/>
</svg>
