<svg width="10" height="10" viewBox="0 0 10 10" fill="none" xmlns="http://www.w3.org/2000/svg">
<path fill-rule="evenodd" clip-rule="evenodd" d="M5 10C7.76142 10 10 7.76142 10 5C10 2.23858 7.76142 0 5 0C2.23858 0 0 2.23858 0 5C0 7.76142 2.23858 10 5 10ZM5.48889 5.61641H8.15C8.21799 5.61607 8.28339 5.59031 8.33333 5.54418C8.38289 5.49606 8.41085 5.42993 8.41085 5.36085C8.41085 5.29177 8.38289 5.22564 8.33333 5.17752C8.28339 5.13139 8.21799 5.10563 8.15 5.1053H5.48889C5.35017 5.09963 5.239 4.98846 5.23333 4.84974V3.58863C5.23215 3.52246 5.20641 3.4591 5.16111 3.41085C5.11299 3.3613 5.04685 3.33333 4.97778 3.33333C4.9087 3.33333 4.84257 3.3613 4.79444 3.41085C4.74915 3.4591 4.7234 3.52246 4.72222 3.58863V4.84974C4.72222 5.05307 4.803 5.24808 4.94677 5.39185C5.09055 5.53563 5.28556 5.61641 5.48889 5.61641Z" fill="#FAFAFA"/>
</svg>
