<svg width="10" height="10" viewBox="0 0 10 10" fill="none" xmlns="http://www.w3.org/2000/svg">
<path d="M8.07853 5.19329H5.34777C5.13911 5.19329 4.939 5.1104 4.79146 4.96286C4.64392 4.81532 4.56104 4.61521 4.56104 4.40656V3.11244C4.56225 3.04454 4.58866 2.97952 4.63515 2.93001C4.68453 2.87916 4.7524 2.85046 4.82328 2.85046C4.89416 2.85046 4.96203 2.87916 5.01141 2.93001C5.0579 2.97952 5.08431 3.04454 5.08552 3.11244V4.40656C5.09134 4.54891 5.20541 4.66298 5.34777 4.6688H8.07853C8.14829 4.66915 8.2154 4.69558 8.26666 4.74291C8.31751 4.7923 8.3462 4.86016 8.3462 4.93105C8.3462 5.00193 8.31751 5.06979 8.26666 5.11918C8.2154 5.16651 8.14829 5.19294 8.07853 5.19329Z" fill="#1D1D1B"/>
<path fill-rule="evenodd" clip-rule="evenodd" d="M0.0968375 5.97703C0.56284 8.31635 2.61646 10.0007 5.00175 9.99999C6.32823 10.0027 7.6008 9.47524 8.53634 8.53484C10.2226 6.84783 10.4824 4.20455 9.15671 2.22156C7.83104 0.238582 5.28921 -0.53179 3.08572 0.381589C0.882241 1.29497 -0.369165 3.6377 0.0968375 5.97703ZM1.54362 2.16084C2.39291 1.12491 3.66206 0.524522 5.00163 0.52499C7.46806 0.537463 9.46441 2.53381 9.47688 5.00024C9.47728 5.88579 9.21326 6.7513 8.71865 7.48586C7.71423 8.98976 5.90251 9.74017 4.12886 9.38693C2.35521 9.0337 0.969219 7.64645 0.617596 5.87249C0.354467 4.55901 0.694335 3.19677 1.54362 2.16084Z" fill="#1D1D1B"/>
</svg>
