<svg width="44" height="43" viewBox="0 0 44 43" fill="none" xmlns="http://www.w3.org/2000/svg">
<path d="M26.4156 25.9337C26.4156 26.3054 26.1075 26.6065 25.7272 26.6065C25.347 26.6065 25.0391 26.3054 25.0391 25.9337C25.0391 25.5624 25.347 25.261 25.7272 25.261C26.1075 25.261 26.4156 25.5624 26.4156 25.9337Z" fill="#FAFAFA"/>
<path d="M35.0647 11.3599C34.9802 11.2056 34.8298 11.0962 34.6543 11.0614C34.6105 11.0525 34.5653 11.0486 34.5203 11.0496H17.4366C17.1043 11.0496 16.8343 11.3131 16.8343 11.6382V18.5193C16.8343 18.8441 17.1043 19.1079 17.4366 19.1079C17.7692 19.1079 18.0389 18.8441 18.0389 18.5193V12.2268H30.422L21.8657 14.7303C21.6109 14.8047 21.4362 15.034 21.4362 15.2941V41.0704C21.4362 41.2563 21.5261 41.4315 21.6787 41.5425C21.8313 41.6535 22.0288 41.6877 22.2113 41.6343L34.7065 37.9781C34.9617 37.9034 35.1366 37.6743 35.1366 37.4139V11.6516C35.1371 11.619 35.1352 11.5861 35.1301 11.5535C35.1199 11.4859 35.0981 11.4204 35.0647 11.3599ZM25.7272 27.784C24.6817 27.784 23.8343 26.9555 23.8343 25.9338C23.8343 24.912 24.6817 24.0838 25.7272 24.0838C26.7728 24.0838 27.6205 24.912 27.6205 25.9338C27.6191 26.955 26.7725 27.7826 25.7272 27.784Z" fill="#FAFAFA"/>
<path d="M18.0389 36.8254V30.8014C18.0389 30.476 17.7692 30.2128 17.4366 30.2128C17.1043 30.2128 16.8343 30.476 16.8343 30.8014V37.4139C16.8343 37.7393 17.1043 38.0028 17.4366 38.0028H21.4362V36.8254H18.0389Z" fill="#FAFAFA"/>
<path d="M9.97189 25.0931H19.6191C19.9515 25.0931 20.2214 24.8295 20.2214 24.5045C20.2214 24.1791 19.9515 23.9159 19.6191 23.9159H9.97189L12.4728 21.4718C12.708 21.242 12.708 20.869 12.4728 20.6394C12.2373 20.4096 11.8562 20.4096 11.621 20.6394L8.09158 24.0881C7.85637 24.3177 7.85637 24.6907 8.09158 24.9205L11.6205 28.3692C11.856 28.5994 12.2373 28.5994 12.4728 28.3692C12.708 28.1394 12.708 27.767 12.4728 27.5369L9.97189 25.0931Z" fill="#FAFAFA"/>
</svg>
