<svg width="248" height="96" viewBox="0 0 248 96" fill="none" xmlns="http://www.w3.org/2000/svg">
<path d="M6.81516 1.05371C9.46066 1.05371 11.1124 1.6696 11.7702 2.90137C12.778 3.97917 13.282 5.23893 13.282 6.68066C13.282 7.68848 12.3861 9.06022 10.5945 10.7959C10.4825 11.1598 10.4265 11.4118 10.4265 11.5518V11.7197C10.4265 12.3636 11.6303 16.0029 14.0378 22.6377C14.9056 24.8213 15.7175 25.9131 16.4734 25.9131C17.6491 26.529 18.489 26.8369 18.9929 26.8369C19.6508 26.8369 20.7986 25.9411 22.4362 24.1494L22.6882 23.9814H22.8562C23.4721 23.9814 23.78 24.4574 23.78 25.4092C23.78 26.9769 22.9681 28.3486 21.3445 29.5244L20.5046 29.6084H20.0847C17.5652 29.6084 15.2696 28.7965 13.198 27.1729C12.6941 26.641 11.2943 23.1416 8.99875 16.6748C8.28488 14.1273 7.52902 12.4756 6.73117 11.7197C6.64719 11.7337 5.97531 12.0977 4.71555 12.8115C4.82752 15.863 4.91151 17.7666 4.9675 18.5225C4.9675 19.8662 4.54758 20.5381 3.70773 20.5381C2.8119 20.5381 2.36398 19.7822 2.36398 18.2705C2.19601 17.2907 2.11203 15.9189 2.11203 14.1553V12.8115C2.11203 12.0977 2.14002 11.2858 2.19601 10.376C1.69211 6.82064 1.44016 4.55306 1.44016 3.57324C1.44016 2.80339 2.22401 2.01953 3.79172 1.22168C5.12147 1.1097 6.12928 1.05371 6.81516 1.05371ZM4.63156 5.00098V7.43652C4.63156 8.72428 4.91151 9.36816 5.47141 9.36816L5.97531 9.45215C7.68299 9.45215 9.22271 8.41634 10.5945 6.34473V6.17676C10.5945 5.50488 9.86659 4.77702 8.41086 3.99316C7.15109 3.71322 6.33924 3.57324 5.97531 3.57324C5.07948 3.57324 4.63156 4.04915 4.63156 5.00098ZM18.9509 1.93555H19.1189C24.0459 2.31348 26.5095 2.7054 26.5095 3.11133L26.5935 3.53125V4.03516C26.5935 4.53906 26.1176 4.79102 25.1657 4.79102C22.8562 4.84701 20.9805 4.875 19.5388 4.875H19.4548C18.1111 4.875 17.4392 5.23893 17.4392 5.9668C17.7191 7.89844 17.9991 9.1862 18.279 9.83008C18.279 10.04 20.2387 10.208 24.1579 10.334C25.7816 10.7259 26.5935 11.2578 26.5935 11.9297C26.5935 12.5876 25.5017 13.1195 23.3181 13.5254H22.8982L19.5388 13.1895H19.4548C18.8389 13.1895 18.531 13.6654 18.531 14.6172V16.3809C18.531 17.3887 18.8109 17.8926 19.3708 17.8926C24.6338 18.1585 27.2654 18.4105 27.2654 18.6484C27.8812 19.1523 28.1892 19.5443 28.1892 19.8242C28.1892 20.5521 27.0694 20.916 24.8298 20.916C23.2761 20.972 21.9883 21 20.9665 21C18.1111 20.916 16.6833 20.5801 16.6833 19.9922C16.3194 19.9922 15.7315 14.7012 14.9196 4.11914C14.9196 3.43327 15.1996 2.98535 15.7595 2.77539C17.3552 2.21549 18.419 1.93555 18.9509 1.93555ZM38.8972 2.60742C41.7527 2.60742 43.6003 4.20312 44.4402 7.39453C44.4402 7.71647 44.4681 7.91243 44.5241 7.98242C44.4122 8.59831 44.1322 8.90625 43.6843 8.90625H43.3484C42.8864 8.87826 42.1306 8.23438 41.0808 6.97461C40.4089 6.35872 39.4571 6.05078 38.2253 6.05078H38.0573C35.5518 6.05078 33.7042 7.67448 32.5144 10.9219C32.4024 11.4958 32.3464 11.8877 32.3464 12.0977C32.6823 14.6172 32.9623 15.877 33.1862 15.877C34.0821 17.1647 35.0059 17.8086 35.9577 17.8086H37.2175C39.0792 17.8086 40.3669 17.0247 41.0808 15.457C41.4867 14.7852 41.9066 14.4492 42.3405 14.4492H42.5925C42.9004 14.4492 43.1524 14.6172 43.3484 14.9531V15.625C43.3484 16.7868 42.8165 18.1305 41.7527 19.6562C40.4649 20.5521 38.9532 21 37.2175 21C33.8441 21 31.6045 19.6842 30.4987 17.0527C29.9948 15.737 29.7429 14.4492 29.7429 13.1895C29.7429 10.18 30.8627 7.32454 33.1023 4.62305C34.53 3.2793 36.2377 2.60742 38.2253 2.60742H38.8972ZM60.4812 0.927734H60.8171C61.447 0.927734 61.8669 1.6276 62.0769 3.02734C62.3008 5.30892 62.4408 7.68848 62.4968 10.166C62.4968 14.2393 61.9649 16.7868 60.9011 17.8086C59.1234 19.9362 56.9398 21 54.3503 21C50.501 21 47.8695 18.7324 46.4558 14.1973C46.0639 12.5176 45.8679 10.6699 45.8679 8.6543V7.14258C45.8679 3.39128 46.2878 1.51562 47.1277 1.51562H47.2116C47.9955 1.51562 48.3874 2.88737 48.3874 5.63086C48.3874 11.4258 48.9473 14.7572 50.0671 15.625C51.3409 17.4727 52.7686 18.3965 54.3503 18.3965H54.7702C55.988 18.3965 57.2478 17.8646 58.5495 16.8008C59.6133 14.9951 60.1452 13.0635 60.1452 11.0059C60.1452 10.502 59.8653 7.73047 59.3054 2.69141C59.3054 1.51562 59.6973 0.927734 60.4812 0.927734ZM67.8718 1.93555H68.0398C72.9668 2.31348 75.4304 2.7054 75.4304 3.11133L75.5144 3.53125V4.03516C75.5144 4.53906 75.0385 4.79102 74.0866 4.79102C71.7771 4.84701 69.9014 4.875 68.4597 4.875H68.3757C67.032 4.875 66.3601 5.23893 66.3601 5.9668C66.64 7.89844 66.92 9.1862 67.1999 9.83008C67.1999 10.04 69.1596 10.208 73.0788 10.334C74.7025 10.7259 75.5144 11.2578 75.5144 11.9297C75.5144 12.5876 74.4226 13.1195 72.239 13.5254H71.8191L68.4597 13.1895H68.3757C67.7598 13.1895 67.4519 13.6654 67.4519 14.6172V16.3809C67.4519 17.3887 67.7318 17.8926 68.2917 17.8926C73.5547 18.1585 76.1862 18.4105 76.1862 18.6484C76.8021 19.1523 77.1101 19.5443 77.1101 19.8242C77.1101 20.5521 75.9903 20.916 73.7507 20.916C72.197 20.972 70.9092 21 69.8874 21C67.032 20.916 65.6042 20.5801 65.6042 19.9922C65.2403 19.9922 64.6524 14.7012 63.8405 4.11914C63.8405 3.43327 64.1205 2.98535 64.6804 2.77539C66.2761 2.21549 67.3399 1.93555 67.8718 1.93555ZM84.0388 1.05371C86.6843 1.05371 88.336 1.6696 88.9939 2.90137C90.0017 3.97917 90.5056 5.23893 90.5056 6.68066C90.5056 7.68848 89.6098 9.06022 87.8181 10.7959C87.7061 11.1598 87.6501 11.4118 87.6501 11.5518V11.7197C87.6501 12.3636 88.8539 16.0029 91.2614 22.6377C92.1293 24.8213 92.9411 25.9131 93.697 25.9131C94.8728 26.529 95.7126 26.8369 96.2165 26.8369C96.8744 26.8369 98.0222 25.9411 99.6599 24.1494L99.9118 23.9814H100.08C100.696 23.9814 101.004 24.4574 101.004 25.4092C101.004 26.9769 100.192 28.3486 98.5681 29.5244L97.7282 29.6084H97.3083C94.7888 29.6084 92.4932 28.7965 90.4216 27.1729C89.9177 26.641 88.518 23.1416 86.2224 16.6748C85.5085 14.1273 84.7527 12.4756 83.9548 11.7197C83.8708 11.7337 83.1989 12.0977 81.9392 12.8115C82.0512 15.863 82.1351 17.7666 82.1911 18.5225C82.1911 19.8662 81.7712 20.5381 80.9314 20.5381C80.0355 20.5381 79.5876 19.7822 79.5876 18.2705C79.4196 17.2907 79.3357 15.9189 79.3357 14.1553V12.8115C79.3357 12.0977 79.3637 11.2858 79.4196 10.376C78.9157 6.82064 78.6638 4.55306 78.6638 3.57324C78.6638 2.80339 79.4476 2.01953 81.0154 1.22168C82.3451 1.1097 83.3529 1.05371 84.0388 1.05371ZM81.8552 5.00098V7.43652C81.8552 8.72428 82.1351 9.36816 82.695 9.36816L83.1989 9.45215C84.9066 9.45215 86.4463 8.41634 87.8181 6.34473V6.17676C87.8181 5.50488 87.0902 4.77702 85.6345 3.99316C84.3747 3.71322 83.5629 3.57324 83.1989 3.57324C82.3031 3.57324 81.8552 4.04915 81.8552 5.00098ZM93.571 3.11133H95.1667C99.142 3.11133 101.885 4.14714 103.397 6.21875C105.301 8.06641 106.253 10.6139 106.253 13.8613C106.253 15.541 105.469 17.1927 103.901 18.8164C100.458 20.2721 97.5743 21 95.2507 21C93.9629 21 93.3191 19.9362 93.3191 17.8086C92.4792 12.7695 92.0593 8.37435 92.0593 4.62305V4.37109C92.0593 3.69922 92.5632 3.2793 93.571 3.11133ZM94.7468 7.22656C95.3347 14.4492 95.8386 18.0605 96.2585 18.0605L96.6784 18.1445C100.206 17.6266 101.969 17.1507 101.969 16.7168C103.257 15.835 103.901 14.7432 103.901 13.4414C103.901 11.9857 102.753 9.94206 100.458 7.31055C99.5899 6.41471 98.4981 5.9668 97.1823 5.9668H96.5105C95.3347 5.9668 94.7468 6.35872 94.7468 7.14258V7.22656ZM115.323 1.76758H115.659C116.583 1.76758 117.171 2.15951 117.423 2.94336C118.15 5.3929 118.934 7.52051 119.774 9.32617C122.07 14.4912 123.217 18.1585 123.217 20.3281C123.008 20.776 122.672 21 122.21 21C121.174 21 120.362 19.9642 119.774 17.8926C119.186 16.3809 118.542 15.625 117.842 15.625C117.031 15.513 116.079 15.457 114.987 15.457H113.895C112.551 15.457 111.74 15.737 111.46 16.2969C110.592 19.0404 109.892 20.4121 109.36 20.4121H108.436C107.918 20.4121 107.554 20.1882 107.344 19.7402V18.9844C107.344 18.8304 107.82 17.5146 108.772 15.0371C109.22 13.6654 110.172 11.5098 111.628 8.57031C113.069 4.46908 113.965 2.31348 114.315 2.10352C114.693 1.87956 115.029 1.76758 115.323 1.76758ZM113.727 11.6777C113.727 12.2376 114.287 12.5176 115.407 12.5176H117.591C117.591 11.3138 117.059 9.91406 115.995 8.31836C115.897 8.31836 115.757 8.26237 115.575 8.15039C114.917 8.15039 114.301 9.32617 113.727 11.6777ZM125.569 1.68359C126.689 1.68359 127.249 3.2513 127.249 6.38672C127.305 7.94043 127.333 9.90007 127.333 12.2656V14.5332C127.333 16.8288 127.501 17.9766 127.837 17.9766C129.334 18.1305 132.05 18.2985 135.983 18.4805C136.655 18.6624 136.991 18.9704 136.991 19.4043V19.9922C136.991 20.6641 135.927 21 133.8 21H128.509C126.381 21 125.317 20.748 125.317 20.2441C124.701 19.1383 124.393 16.2549 124.393 11.5938V9.74609C124.393 4.42708 124.673 1.76758 125.233 1.76758C125.331 1.71159 125.443 1.68359 125.569 1.68359ZM147.405 0.171875H147.489C151.1 0.171875 153.984 2.13151 156.139 6.05078C156.923 7.98242 157.315 9.83008 157.315 11.5938V12.7695C157.315 15.765 156.055 18.0605 153.536 19.6562C150.806 20.5521 148.763 21 147.405 21H146.817C145.305 21 143.318 20.1322 140.854 18.3965C139.608 17.1367 138.825 15.653 138.503 13.9453C138.335 13.3574 138.251 12.7695 138.251 12.1816V11.5938C138.615 7.95443 139.203 5.77083 140.014 5.04297C142.142 1.79557 144.606 0.171875 147.405 0.171875ZM141.022 11.3418C141.022 14.0993 141.778 15.891 143.29 16.7168C144.731 17.8366 146.299 18.3965 147.993 18.3965C151.002 18.0885 152.682 17.6126 153.032 16.9688C154.32 16.2409 154.964 14.7572 154.964 12.5176C154.964 8.55632 153.62 5.53288 150.932 3.44727C150.316 3.16732 149.449 3.02734 148.329 3.02734H146.985C145.207 3.02734 144.032 3.53125 143.458 4.53906C141.89 6.10677 141.106 8.1224 141.106 10.5859C141.106 10.8799 141.078 11.1318 141.022 11.3418ZM160.549 16.6328C160.982 16.6328 161.234 17.3887 161.304 18.9004V22.2598C161.304 23.9395 160.884 24.7793 160.045 24.7793C159.317 24.7793 158.953 24.3034 158.953 23.3516V23.0156C158.953 18.7604 159.345 16.6328 160.129 16.6328H160.549ZM182.259 2.60742C185.114 2.60742 186.962 4.20312 187.801 7.39453C187.801 7.71647 187.829 7.91243 187.885 7.98242C187.773 8.59831 187.494 8.90625 187.046 8.90625H186.71C186.248 8.87826 185.492 8.23438 184.442 6.97461C183.77 6.35872 182.818 6.05078 181.587 6.05078H181.419C178.913 6.05078 177.065 7.67448 175.876 10.9219C175.764 11.4958 175.708 11.8877 175.708 12.0977C176.044 14.6172 176.324 15.877 176.548 15.877C177.443 17.1647 178.367 17.8086 179.319 17.8086H180.579C182.44 17.8086 183.728 17.0247 184.442 15.457C184.848 14.7852 185.268 14.4492 185.702 14.4492H185.954C186.262 14.4492 186.514 14.6172 186.71 14.9531V15.625C186.71 16.7868 186.178 18.1305 185.114 19.6562C183.826 20.5521 182.315 21 180.579 21C177.205 21 174.966 19.6842 173.86 17.0527C173.356 15.737 173.104 14.4492 173.104 13.1895C173.104 10.18 174.224 7.32454 176.464 4.62305C177.891 3.2793 179.599 2.60742 181.587 2.60742H182.259ZM198.384 0.171875H198.467C202.079 0.171875 204.962 2.13151 207.118 6.05078C207.902 7.98242 208.294 9.83008 208.294 11.5938V12.7695C208.294 15.765 207.034 18.0605 204.514 19.6562C201.785 20.5521 199.741 21 198.384 21H197.796C196.284 21 194.296 20.1322 191.833 18.3965C190.587 17.1367 189.803 15.653 189.481 13.9453C189.313 13.3574 189.229 12.7695 189.229 12.1816V11.5938C189.593 7.95443 190.181 5.77083 190.993 5.04297C193.12 1.79557 195.584 0.171875 198.384 0.171875ZM192.001 11.3418C192.001 14.0993 192.757 15.891 194.268 16.7168C195.71 17.8366 197.278 18.3965 198.971 18.3965C201.981 18.0885 203.661 17.6126 204.01 16.9688C205.298 16.2409 205.942 14.7572 205.942 12.5176C205.942 8.55632 204.598 5.53288 201.911 3.44727C201.295 3.16732 200.427 3.02734 199.307 3.02734H197.964C196.186 3.02734 195.01 3.53125 194.436 4.53906C192.869 6.10677 192.085 8.1224 192.085 10.5859C192.085 10.8799 192.057 11.1318 192.001 11.3418ZM211.275 1.85156H211.527C212.199 1.85156 213.179 3.2513 214.467 6.05078C215.586 7.94043 216.622 9.22819 217.574 9.91406L217.742 9.99805C218.12 9.99805 218.876 8.99023 220.009 6.97461C221.913 3.89518 223.117 2.35547 223.621 2.35547H224.461C225.538 2.35547 226.154 3.02734 226.308 4.37109C226.812 9.63411 227.064 14.3092 227.064 18.3965V19.2363C227.064 20.0762 226.84 20.4961 226.392 20.4961H226.056C224.937 20.4961 224.377 20.1042 224.377 19.3203C224.251 19.3203 224.167 18.3965 224.125 16.5488V15.1211C224.125 10.138 223.817 7.64648 223.201 7.64648C222.627 7.91243 221.787 8.83626 220.681 10.418C219.618 12.6016 218.61 13.6934 217.658 13.6934C216.594 13.6934 215.558 12.8255 214.551 11.0898L213.291 9.83008H213.123C212.843 9.83008 212.619 10.306 212.451 11.2578C212.451 11.8597 212.479 12.6436 212.535 13.6094C212.381 18.5365 211.989 21 211.359 21H211.023C210.407 21 210.015 20.5241 209.847 19.5723L209.763 18.9844C209.819 16.0589 209.847 13.7354 209.847 12.0137V11.1738C209.847 11.1178 209.875 11.0898 209.931 11.0898L209.847 10.9219V9.24219C209.847 8.6543 209.707 7.08659 209.427 4.53906C209.581 2.7474 210.197 1.85156 211.275 1.85156ZM237.94 0.171875H238.024C241.635 0.171875 244.519 2.13151 246.675 6.05078C247.458 7.98242 247.85 9.83008 247.85 11.5938V12.7695C247.85 15.765 246.591 18.0605 244.071 19.6562C241.342 20.5521 239.298 21 237.94 21H237.352C235.841 21 233.853 20.1322 231.389 18.3965C230.144 17.1367 229.36 15.653 229.038 13.9453C228.87 13.3574 228.786 12.7695 228.786 12.1816V11.5938C229.15 7.95443 229.738 5.77083 230.55 5.04297C232.677 1.79557 235.141 0.171875 237.94 0.171875ZM231.557 11.3418C231.557 14.0993 232.313 15.891 233.825 16.7168C235.267 17.8366 236.834 18.3965 238.528 18.3965C241.537 18.0885 243.217 17.6126 243.567 16.9688C244.855 16.2409 245.499 14.7572 245.499 12.5176C245.499 8.55632 244.155 5.53288 241.467 3.44727C240.852 3.16732 239.984 3.02734 238.864 3.02734H237.52C235.743 3.02734 234.567 3.53125 233.993 4.53906C232.425 6.10677 231.641 8.1224 231.641 10.5859C231.641 10.8799 231.613 11.1318 231.557 11.3418ZM4.29562 34.7676H10.5945C13.3939 34.7676 14.7937 35.0475 14.7937 35.6074V36.3633C14.7937 36.9792 14.0378 37.2871 12.5261 37.2871C11.1963 37.2871 10.1605 37.5111 9.41867 37.959C9.41867 46.1335 9.67062 50.2207 10.1745 50.2207C10.1745 50.9626 11.1823 51.5225 13.198 51.9004C13.5899 52.1383 13.7859 52.4743 13.7859 52.9082V52.9922C13.7859 53.6081 13.4779 53.916 12.862 53.916C12.5121 53.972 12.1202 54 11.6862 54C4.51958 54 0.936249 53.6921 0.936249 53.0762L0.852264 52.6562C1.10422 51.9284 1.91607 51.5645 3.28781 51.5645C5.58338 51.5645 6.73117 51.3125 6.73117 50.8086C6.78716 50.1927 6.84315 49.8848 6.89914 49.8848L6.81516 49.4648L6.31125 37.623H6.22726C4.07167 37.623 2.67193 37.1471 2.02805 36.1953L1.94406 35.7754C2.05604 35.1035 2.83989 34.7676 4.29562 34.7676ZM29.9109 34.4316H29.9948C30.6667 34.4316 31.0027 35.1875 31.0027 36.6992V37.2871C31.0027 47.4212 30.6107 52.4883 29.8269 52.4883C29.7009 52.8802 29.337 53.0762 28.7351 53.0762H28.5671C26.9154 52.6562 25.1517 50.6126 23.2761 46.9453L20.0007 41.7383L19.4968 41.3184H19.1609C19.1609 41.3743 19.1329 41.4583 19.0769 41.5703C19.3568 44.0339 19.4968 45.9375 19.4968 47.2812V48.2051C19.2588 51.7044 18.6709 53.6361 17.7331 54C17.0053 54 16.6413 52.6562 16.6413 49.9688L16.3894 36.1113C16.3894 35.4674 16.7253 35.0755 17.3972 34.9355H17.8171C18.7409 34.9355 20.0847 36.4473 21.8484 39.4707C23.0661 41.3044 24.2979 43.32 25.5437 45.5176C26.7334 46.9733 27.5453 47.7012 27.9792 47.7012C28.1472 47.3792 28.2312 46.3434 28.2312 44.5938V41.4863C28.2312 37.1751 28.4831 35.0195 28.987 35.0195C29.267 34.6276 29.5749 34.4316 29.9109 34.4316ZM40.4929 32.668C43.7123 32.9479 45.532 33.3678 45.9519 33.9277C48.6394 36.1253 49.9831 39.1768 49.9831 43.082C49.9831 44.6917 49.7032 46.4554 49.1433 48.373V48.793C49.1433 49.2409 49.6752 50.2207 50.739 51.7324L50.823 52.2363V52.3203C50.403 53.4401 49.9271 54 49.3952 54C48.4714 53.2861 47.4916 52.2783 46.4558 50.9766C44.0622 52.0964 41.7946 52.6562 39.653 52.6562C37.2455 52.6562 35.2299 51.0885 33.6062 47.9531C33.0463 46.2594 32.7663 44.6357 32.7663 43.082V42.2422C32.7663 37.973 34.558 35.0335 38.1413 33.4238C39.0792 32.9199 39.863 32.668 40.4929 32.668ZM35.3698 43.082C35.3698 45.5456 36.3217 47.5892 38.2253 49.2129C38.7992 49.5488 39.5551 49.7168 40.4929 49.7168H40.8288C42.5645 49.7168 43.6003 49.4089 43.9362 48.793C43.9362 46.8893 44.4681 45.9375 45.532 45.9375C46.5398 45.9375 47.0437 45.6016 47.0437 44.9297C47.0997 44.7197 47.1277 44.4118 47.1277 44.0059V42.998C47.1277 39.1348 45.8119 36.8672 43.1804 36.1953C42.3405 35.9154 41.1648 35.6354 39.653 35.3555C36.7976 36.8112 35.3698 39.3867 35.3698 43.082ZM67.2839 33.9277H67.6198C68.2497 33.9277 68.6696 34.6276 68.8796 36.0273C69.1036 38.3089 69.2435 40.6885 69.2995 43.166C69.2995 47.2393 68.7676 49.7868 67.7038 50.8086C65.9262 52.9362 63.7426 54 61.153 54C57.3038 54 54.6723 51.7324 53.2585 47.1973C52.8666 45.5176 52.6706 43.6699 52.6706 41.6543V40.1426C52.6706 36.3913 53.0905 34.5156 53.9304 34.5156H54.0144C54.7982 34.5156 55.1902 35.8874 55.1902 38.6309C55.1902 44.4258 55.7501 47.7572 56.8698 48.625C58.1436 50.4727 59.5713 51.3965 61.153 51.3965H61.573C62.7907 51.3965 64.0505 50.8646 65.3523 49.8008C66.4161 47.9951 66.948 46.0635 66.948 44.0059C66.948 43.502 66.668 40.7305 66.1081 35.6914C66.1081 34.5156 66.5001 33.9277 67.2839 33.9277ZM74.0866 34.7676H80.3855C83.1849 34.7676 84.5847 35.0475 84.5847 35.6074V36.3633C84.5847 36.9792 83.8288 37.2871 82.3171 37.2871C80.9874 37.2871 79.9515 37.5111 79.2097 37.959C79.2097 46.1335 79.4616 50.2207 79.9655 50.2207C79.9655 50.9626 80.9734 51.5225 82.989 51.9004C83.3809 52.1383 83.5769 52.4743 83.5769 52.9082V52.9922C83.5769 53.6081 83.2689 53.916 82.653 53.916C82.3031 53.972 81.9112 54 81.4773 54C74.3106 54 70.7273 53.6921 70.7273 53.0762L70.6433 52.6562C70.8952 51.9284 71.7071 51.5645 73.0788 51.5645C75.3744 51.5645 76.5222 51.3125 76.5222 50.8086C76.5782 50.1927 76.6342 49.8848 76.6902 49.8848L76.6062 49.4648L76.1023 37.623H76.0183C73.8627 37.623 72.4629 37.1471 71.8191 36.1953L71.7351 35.7754C71.8471 35.1035 72.6309 34.7676 74.0866 34.7676ZM87.3562 34.6836C88.476 34.6836 89.0359 36.2513 89.0359 39.3867C89.0918 40.9404 89.1198 42.9001 89.1198 45.2656V47.5332C89.1198 49.8288 89.2878 50.9766 89.6237 50.9766C91.1215 51.1305 93.837 51.2985 97.7702 51.4805C98.4421 51.6624 98.778 51.9704 98.778 52.4043V52.9922C98.778 53.6641 97.7142 54 95.5866 54H90.2956C88.168 54 87.1042 53.748 87.1042 53.2441C86.4883 52.1383 86.1804 49.2549 86.1804 44.5938V42.7461C86.1804 37.4271 86.4603 34.7676 87.0202 34.7676C87.1182 34.7116 87.2302 34.6836 87.3562 34.6836ZM103.481 34.7676H109.78C112.579 34.7676 113.979 35.0475 113.979 35.6074V36.3633C113.979 36.9792 113.223 37.2871 111.712 37.2871C110.382 37.2871 109.346 37.5111 108.604 37.959C108.604 46.1335 108.856 50.2207 109.36 50.2207C109.36 50.9626 110.368 51.5225 112.384 51.9004C112.775 52.1383 112.971 52.4743 112.971 52.9082V52.9922C112.971 53.6081 112.663 53.916 112.048 53.916C111.698 53.972 111.306 54 110.872 54C103.705 54 100.122 53.6921 100.122 53.0762L100.038 52.6562C100.29 51.9284 101.102 51.5645 102.473 51.5645C104.769 51.5645 105.917 51.3125 105.917 50.8086C105.973 50.1927 106.029 49.8848 106.085 49.8848L106.001 49.4648L105.497 37.623H105.413C103.257 37.623 101.857 37.1471 101.214 36.1953L101.13 35.7754C101.242 35.1035 102.025 34.7676 103.481 34.7676ZM129.096 34.4316H129.18C129.852 34.4316 130.188 35.1875 130.188 36.6992V37.2871C130.188 47.4212 129.796 52.4883 129.012 52.4883C128.886 52.8802 128.523 53.0762 127.921 53.0762H127.753C126.101 52.6562 124.337 50.6126 122.462 46.9453L119.186 41.7383L118.682 41.3184H118.346C118.346 41.3743 118.318 41.4583 118.262 41.5703C118.542 44.0339 118.682 45.9375 118.682 47.2812V48.2051C118.444 51.7044 117.856 53.6361 116.919 54C116.191 54 115.827 52.6562 115.827 49.9688L115.575 36.1113C115.575 35.4674 115.911 35.0755 116.583 34.9355H117.003C117.926 34.9355 119.27 36.4473 121.034 39.4707C122.252 41.3044 123.483 43.32 124.729 45.5176C125.919 46.9733 126.731 47.7012 127.165 47.7012C127.333 47.3792 127.417 46.3434 127.417 44.5938V41.4863C127.417 37.1751 127.669 35.0195 128.173 35.0195C128.453 34.6276 128.76 34.4316 129.096 34.4316ZM141.106 33.1719H141.19C144.801 33.1719 147.685 35.1315 149.841 39.0508C150.624 40.9824 151.016 42.8301 151.016 44.5938V45.7695C151.016 48.765 149.757 51.0605 147.237 52.6562C144.508 53.5521 142.464 54 141.106 54H140.518C139.007 54 137.019 53.1322 134.555 51.3965C133.31 50.1367 132.526 48.653 132.204 46.9453C132.036 46.3574 131.952 45.7695 131.952 45.1816V44.5938C132.316 40.9544 132.904 38.7708 133.716 38.043C135.843 34.7956 138.307 33.1719 141.106 33.1719ZM134.723 44.3418C134.723 47.0993 135.479 48.891 136.991 49.7168C138.433 50.8366 140 51.3965 141.694 51.3965C144.704 51.0885 146.383 50.6126 146.733 49.9688C148.021 49.2409 148.665 47.7572 148.665 45.5176C148.665 41.5563 147.321 38.5329 144.634 36.4473C144.018 36.1673 143.15 36.0273 142.03 36.0273H140.686C138.909 36.0273 137.733 36.5312 137.159 37.5391C135.591 39.1068 134.807 41.1224 134.807 43.5859C134.807 43.8799 134.779 44.1318 134.723 44.3418ZM154.25 49.6328C154.684 49.6328 154.936 50.3887 155.006 51.9004V55.2598C155.006 56.9395 154.586 57.7793 153.746 57.7793C153.018 57.7793 152.654 57.3034 152.654 56.3516V56.0156C152.654 51.7604 153.046 49.6328 153.83 49.6328H154.25ZM234.077 84.0605H234.245C234.707 84.0605 235.015 84.3965 235.169 85.0684C235.169 85.7122 234.749 86.3561 233.909 87C233.181 86.3001 232.817 85.8242 232.817 85.5723V85.4883C232.817 85.1243 233.237 84.6484 234.077 84.0605Z" fill="white"/>
<path d="M181.419 33.9277H181.755C182.384 33.9277 182.804 34.6276 183.014 36.0273C183.238 38.3089 183.378 40.6885 183.434 43.166C183.434 47.2393 182.902 49.7868 181.839 50.8086C180.061 52.9362 177.877 54 175.288 54C171.439 54 168.807 51.7324 167.393 47.1973C167.001 45.5176 166.805 43.6699 166.805 41.6543V40.1426C166.805 36.3913 167.225 34.5156 168.065 34.5156H168.149C168.933 34.5156 169.325 35.8874 169.325 38.6309C169.325 44.4258 169.885 47.7572 171.005 48.625C172.278 50.4727 173.706 51.3965 175.288 51.3965H175.708C176.926 51.3965 178.185 50.8646 179.487 49.8008C180.551 47.9951 181.083 46.0635 181.083 44.0059C181.083 43.502 180.803 40.7305 180.243 35.6914C180.243 34.5156 180.635 33.9277 181.419 33.9277ZM189.985 35.0195H190.237C193.974 35.0615 196.298 36.1533 197.208 38.2949V38.3789C197.124 39.2188 196.816 39.6387 196.284 39.6387H195.948C195.43 39.6387 194.646 39.1628 193.596 38.2109C193.288 37.987 192.869 37.875 192.337 37.875H189.985C188.781 37.875 187.941 38.7428 187.466 40.4785C187.466 41.8083 189.229 42.7601 192.757 43.334C194.66 43.9079 195.948 44.7477 196.62 45.8535C197.572 47.4492 198.048 48.513 198.048 49.0449V49.5488C198.048 50.4867 197.124 51.6064 195.276 52.9082C193.47 53.6361 191.875 54 190.489 54H189.817C188.557 54 187.158 53.3841 185.618 52.1523C185.394 51.6344 185.282 51.2705 185.282 51.0605V50.0527C185.282 49.5488 185.506 49.1569 185.954 48.877H186.458C187.018 48.877 187.885 49.6608 189.061 51.2285H191.413C192.645 51.2285 193.456 51.0605 193.848 50.7246C194.632 49.9548 195.024 49.2829 195.024 48.709C195.024 47.1553 192.729 45.8955 188.137 44.9297C185.898 43.9919 184.778 42.5921 184.778 40.7305V40.6465C184.778 38.057 186.122 36.2093 188.809 35.1035C189.285 35.0475 189.677 35.0195 189.985 35.0195ZM213.774 34.5996H214.613C216.853 34.5996 217.973 35.0195 217.973 35.8594V35.9434C217.973 36.8952 217.077 37.3711 215.285 37.3711C210.974 37.3711 208.819 38.099 208.819 39.5547C209.043 41.8083 209.155 44.4118 209.155 47.3652V52.6562C208.399 53.5521 207.839 54 207.475 54C206.803 53.86 206.467 52.9082 206.467 51.1445C206.411 48.723 206.383 46.3994 206.383 44.1738V38.2109C206.383 38.099 206.327 38.043 206.215 38.043C201.344 37.819 198.684 37.651 198.237 37.5391C197.901 37.3151 197.733 37.0632 197.733 36.7832V36.3633C197.733 35.5234 199.076 35.1035 201.764 35.1035C209.77 34.9215 213.774 34.7536 213.774 34.5996ZM222.991 34.9355H223.159C228.086 35.3135 230.55 35.7054 230.55 36.1113L230.634 36.5312V37.0352C230.634 37.5391 230.158 37.791 229.206 37.791C226.896 37.847 225.021 37.875 223.579 37.875H223.495C222.151 37.875 221.479 38.2389 221.479 38.9668C221.759 40.8984 222.039 42.1862 222.319 42.8301C222.319 43.04 224.279 43.208 228.198 43.334C229.822 43.7259 230.634 44.2578 230.634 44.9297C230.634 45.5876 229.542 46.1195 227.358 46.5254H226.938L223.579 46.1895H223.495C222.879 46.1895 222.571 46.6654 222.571 47.6172V49.3809C222.571 50.3887 222.851 50.8926 223.411 50.8926C228.674 51.1585 231.305 51.4105 231.305 51.6484C231.921 52.1523 232.229 52.5443 232.229 52.8242C232.229 53.5521 231.109 53.916 228.87 53.916C227.316 53.972 226.028 54 225.007 54C222.151 53.916 220.723 53.5801 220.723 52.9922C220.359 52.9922 219.772 47.7012 218.96 37.1191C218.96 36.4333 219.24 35.9854 219.8 35.7754C221.395 35.2155 222.459 34.9355 222.991 34.9355ZM235.295 36.1113H236.89C240.866 36.1113 243.609 37.1471 245.121 39.2188C247.024 41.0664 247.976 43.6139 247.976 46.8613C247.976 48.541 247.192 50.1927 245.625 51.8164C242.181 53.2721 239.298 54 236.974 54C235.687 54 235.043 52.9362 235.043 50.8086C234.203 45.7695 233.783 41.3743 233.783 37.623V37.3711C233.783 36.6992 234.287 36.2793 235.295 36.1113ZM236.47 40.2266C237.058 47.4492 237.562 51.0605 237.982 51.0605L238.402 51.1445C241.929 50.6266 243.693 50.1507 243.693 49.7168C244.981 48.835 245.625 47.7432 245.625 46.4414C245.625 44.9857 244.477 42.9421 242.181 40.3105C241.314 39.4147 240.222 38.9668 238.906 38.9668H238.234C237.058 38.9668 236.47 39.3587 236.47 40.1426V40.2266ZM28.5461 67.5996H29.386C31.6255 67.5996 32.7453 68.0195 32.7453 68.8594V68.9434C32.7453 69.8952 31.8495 70.3711 30.0578 70.3711C25.7466 70.3711 23.591 71.099 23.591 72.5547C23.815 74.8083 23.927 77.4118 23.927 80.3652V85.6562C23.1711 86.5521 22.6112 87 22.2473 87C21.5754 86.86 21.2395 85.9082 21.2395 84.1445C21.1835 81.723 21.1555 79.3994 21.1555 77.1738V71.2109C21.1555 71.099 21.0995 71.043 20.9875 71.043C16.1164 70.819 13.4569 70.651 13.009 70.5391C12.6731 70.3151 12.5051 70.0632 12.5051 69.7832V69.3633C12.5051 68.5234 13.8488 68.1035 16.5363 68.1035C24.5429 67.9215 28.5461 67.7536 28.5461 67.5996ZM37.1755 67.7676H43.4743C46.2738 67.7676 47.6736 68.0475 47.6736 68.6074V69.3633C47.6736 69.9792 46.9177 70.2871 45.406 70.2871C44.0762 70.2871 43.0404 70.5111 42.2986 70.959C42.2986 79.1335 42.5505 83.2207 43.0544 83.2207C43.0544 83.9626 44.0622 84.5225 46.0779 84.9004C46.4698 85.1383 46.6657 85.4743 46.6657 85.9082V85.9922C46.6657 86.6081 46.3578 86.916 45.7419 86.916C45.392 86.972 45.0001 87 44.5661 87C37.3995 87 33.8161 86.6921 33.8161 86.0762L33.7321 85.6562C33.9841 84.9284 34.7959 84.5645 36.1677 84.5645C38.4633 84.5645 39.6111 84.3125 39.6111 83.8086C39.667 83.1927 39.723 82.8848 39.779 82.8848L39.695 82.4648L39.1911 70.623H39.1071C36.9515 70.623 35.5518 70.1471 34.9079 69.1953L34.8239 68.7754C34.9359 68.1035 35.7198 67.7676 37.1755 67.7676ZM53.3005 67.9355H53.4685C58.3956 68.3135 60.8591 68.7054 60.8591 69.1113L60.9431 69.5312V70.0352C60.9431 70.5391 60.4672 70.791 59.5154 70.791C57.2058 70.847 55.3301 70.875 53.8884 70.875H53.8044C52.4607 70.875 51.7888 71.2389 51.7888 71.9668C52.0687 73.8984 52.3487 75.1862 52.6286 75.8301C52.6286 76.04 54.5883 76.208 58.5075 76.334C60.1312 76.7259 60.9431 77.2578 60.9431 77.9297C60.9431 78.5876 59.8513 79.1195 57.6677 79.5254H57.2478L53.8884 79.1895H53.8044C53.1885 79.1895 52.8806 79.6654 52.8806 80.6172V82.3809C52.8806 83.3887 53.1605 83.8926 53.7204 83.8926C58.9834 84.1585 61.615 84.4105 61.615 84.6484C62.2308 85.1523 62.5388 85.5443 62.5388 85.8242C62.5388 86.5521 61.419 86.916 59.1794 86.916C57.6257 86.972 56.3379 87 55.3161 87C52.4607 86.916 51.0329 86.5801 51.0329 85.9922C50.669 85.9922 50.0811 80.7012 49.2693 70.1191C49.2693 69.4333 49.5492 68.9854 50.1091 68.7754C51.7048 68.2155 52.7686 67.9355 53.3005 67.9355ZM77.614 67.4316H77.698C78.3698 67.4316 78.7058 68.1875 78.7058 69.6992V70.2871C78.7058 80.4212 78.3139 85.4883 77.53 85.4883C77.404 85.8802 77.0401 86.0762 76.4382 86.0762H76.2702C74.6185 85.6562 72.8549 83.6126 70.9792 79.9453L67.7038 74.7383L67.1999 74.3184H66.864C66.864 74.3743 66.836 74.4583 66.78 74.5703C67.0599 77.0339 67.1999 78.9375 67.1999 80.2812V81.2051C66.962 84.7044 66.3741 86.6361 65.4362 87C64.7084 87 64.3445 85.6562 64.3445 82.9688L64.0925 69.1113C64.0925 68.4674 64.4284 68.0755 65.1003 67.9355H65.5202C66.4441 67.9355 67.7878 69.4473 69.5515 72.4707C70.7693 74.3044 72.001 76.32 73.2468 78.5176C74.4366 79.9733 75.2484 80.7012 75.6823 80.7012C75.8503 80.3792 75.9343 79.3434 75.9343 77.5938V74.4863C75.9343 70.1751 76.1862 68.0195 76.6902 68.0195C76.9701 67.6276 77.278 67.4316 77.614 67.4316ZM84.5007 67.9355H84.6687C89.5958 68.3135 92.0593 68.7054 92.0593 69.1113L92.1433 69.5312V70.0352C92.1433 70.5391 91.6674 70.791 90.7155 70.791C88.406 70.847 86.5303 70.875 85.0886 70.875H85.0046C83.6609 70.875 82.989 71.2389 82.989 71.9668C83.2689 73.8984 83.5489 75.1862 83.8288 75.8301C83.8288 76.04 85.7885 76.208 89.7077 76.334C91.3314 76.7259 92.1433 77.2578 92.1433 77.9297C92.1433 78.5876 91.0515 79.1195 88.8679 79.5254H88.448L85.0886 79.1895H85.0046C84.3887 79.1895 84.0808 79.6654 84.0808 80.6172V82.3809C84.0808 83.3887 84.3607 83.8926 84.9206 83.8926C90.1836 84.1585 92.8152 84.4105 92.8152 84.6484C93.431 85.1523 93.739 85.5443 93.739 85.8242C93.739 86.5521 92.6192 86.916 90.3796 86.916C88.8259 86.972 87.5381 87 86.5163 87C83.6609 86.916 82.2331 86.5801 82.2331 85.9922C81.8692 85.9922 81.2813 80.7012 80.4695 70.1191C80.4695 69.4333 80.7494 68.9854 81.3093 68.7754C82.905 68.2155 83.9688 67.9355 84.5007 67.9355ZM107.386 69.1113H108.982C112.957 69.1113 115.701 70.1471 117.213 72.2188C119.116 74.0664 120.068 76.6139 120.068 79.8613C120.068 81.541 119.284 83.1927 117.717 84.8164C114.273 86.2721 111.39 87 109.066 87C107.778 87 107.134 85.9362 107.134 83.8086C106.295 78.7695 105.875 74.3743 105.875 70.623V70.3711C105.875 69.6992 106.379 69.2793 107.386 69.1113ZM108.562 73.2266C109.15 80.4492 109.654 84.0605 110.074 84.0605L110.494 84.1445C114.021 83.6266 115.785 83.1507 115.785 82.7168C117.073 81.835 117.717 80.7432 117.717 79.4414C117.717 77.9857 116.569 75.9421 114.273 73.3105C113.405 72.4147 112.314 71.9668 110.998 71.9668H110.326C109.15 71.9668 108.562 72.3587 108.562 73.1426V73.2266ZM125.695 67.9355H125.863C130.79 68.3135 133.254 68.7054 133.254 69.1113L133.338 69.5312V70.0352C133.338 70.5391 132.862 70.791 131.91 70.791C129.6 70.847 127.725 70.875 126.283 70.875H126.199C124.855 70.875 124.183 71.2389 124.183 71.9668C124.463 73.8984 124.743 75.1862 125.023 75.8301C125.023 76.04 126.983 76.208 130.902 76.334C132.526 76.7259 133.338 77.2578 133.338 77.9297C133.338 78.5876 132.246 79.1195 130.062 79.5254H129.642L126.283 79.1895H126.199C125.583 79.1895 125.275 79.6654 125.275 80.6172V82.3809C125.275 83.3887 125.555 83.8926 126.115 83.8926C131.378 84.1585 134.009 84.4105 134.009 84.6484C134.625 85.1523 134.933 85.5443 134.933 85.8242C134.933 86.5521 133.814 86.916 131.574 86.916C130.02 86.972 128.732 87 127.711 87C124.855 86.916 123.427 86.5801 123.427 85.9922C123.064 85.9922 122.476 80.7012 121.664 70.1191C121.664 69.4333 121.944 68.9854 122.504 68.7754C124.099 68.2155 125.163 67.9355 125.695 67.9355ZM141.862 67.0537C144.508 67.0537 146.159 67.6696 146.817 68.9014C147.825 69.9792 148.329 71.2389 148.329 72.6807C148.329 73.6885 147.433 75.0602 145.641 76.7959C145.529 77.1598 145.473 77.4118 145.473 77.5518V77.7197C145.473 78.3636 146.677 82.0029 149.085 88.6377C149.953 90.8213 150.764 91.9131 151.52 91.9131C152.696 92.529 153.536 92.8369 154.04 92.8369C154.698 92.8369 155.845 91.9411 157.483 90.1494L157.735 89.9814H157.903C158.519 89.9814 158.827 90.4574 158.827 91.4092C158.827 92.9769 158.015 94.3486 156.391 95.5244L155.551 95.6084H155.132C152.612 95.6084 150.316 94.7965 148.245 93.1729C147.741 92.641 146.341 89.1416 144.046 82.6748C143.332 80.1273 142.576 78.4756 141.778 77.7197C141.694 77.7337 141.022 78.0977 139.762 78.8115C139.874 81.863 139.958 83.7666 140.014 84.5225C140.014 85.8662 139.594 86.5381 138.755 86.5381C137.859 86.5381 137.411 85.7822 137.411 84.2705C137.243 83.2907 137.159 81.9189 137.159 80.1553V78.8115C137.159 78.0977 137.187 77.2858 137.243 76.376C136.739 72.8206 136.487 70.5531 136.487 69.5732C136.487 68.8034 137.271 68.0195 138.839 67.2217C140.168 67.1097 141.176 67.0537 141.862 67.0537ZM139.678 71.001V73.4365C139.678 74.7243 139.958 75.3682 140.518 75.3682L141.022 75.4521C142.73 75.4521 144.27 74.4163 145.641 72.3447V72.1768C145.641 71.5049 144.913 70.777 143.458 69.9932C142.198 69.7132 141.386 69.5732 141.022 69.5732C140.126 69.5732 139.678 70.0492 139.678 71.001ZM153.914 67.9355H154.082C159.009 68.3135 161.472 68.7054 161.472 69.1113L161.556 69.5312V70.0352C161.556 70.5391 161.08 70.791 160.129 70.791C157.819 70.847 155.943 70.875 154.502 70.875H154.418C153.074 70.875 152.402 71.2389 152.402 71.9668C152.682 73.8984 152.962 75.1862 153.242 75.8301C153.242 76.04 155.202 76.208 159.121 76.334C160.745 76.7259 161.556 77.2578 161.556 77.9297C161.556 78.5876 160.465 79.1195 158.281 79.5254H157.861L154.502 79.1895H154.418C153.802 79.1895 153.494 79.6654 153.494 80.6172V82.3809C153.494 83.3887 153.774 83.8926 154.334 83.8926C159.597 84.1585 162.228 84.4105 162.228 84.6484C162.844 85.1523 163.152 85.5443 163.152 85.8242C163.152 86.5521 162.032 86.916 159.793 86.916C158.239 86.972 156.951 87 155.929 87C153.074 86.916 151.646 86.5801 151.646 85.9922C151.282 85.9922 150.694 80.7012 149.883 70.1191C149.883 69.4333 150.162 68.9854 150.722 68.7754C152.318 68.2155 153.382 67.9355 153.914 67.9355ZM173.86 68.6074C176.716 68.6074 178.563 70.2031 179.403 73.3945C179.403 73.7165 179.431 73.9124 179.487 73.9824C179.375 74.5983 179.095 74.9062 178.647 74.9062H178.311C177.849 74.8783 177.093 74.2344 176.044 72.9746C175.372 72.3587 174.42 72.0508 173.188 72.0508H173.02C170.515 72.0508 168.667 73.6745 167.477 76.9219C167.365 77.4958 167.309 77.8877 167.309 78.0977C167.645 80.6172 167.925 81.877 168.149 81.877C169.045 83.1647 169.969 83.8086 170.921 83.8086H172.18C174.042 83.8086 175.33 83.0247 176.044 81.457C176.45 80.7852 176.87 80.4492 177.303 80.4492H177.555C177.863 80.4492 178.115 80.6172 178.311 80.9531V81.625C178.311 82.7868 177.779 84.1305 176.716 85.6562C175.428 86.5521 173.916 87 172.18 87C168.807 87 166.567 85.6842 165.462 83.0527C164.958 81.737 164.706 80.4492 164.706 79.1895C164.706 76.18 165.826 73.3245 168.065 70.623C169.493 69.2793 171.201 68.6074 173.188 68.6074H173.86ZM182.342 68.3555C183.126 68.3555 183.518 68.9714 183.518 70.2031C183.644 74.5703 183.896 76.7539 184.274 76.7539C184.694 76.8939 185.954 77.0059 188.053 77.0898C191.189 77.0898 192.757 76.8659 192.757 76.418C192.869 76.18 192.925 75.7321 192.925 75.0742V70.1191C193.065 68.9993 193.456 68.4395 194.1 68.4395H194.436C195.066 68.4395 195.514 70.5951 195.78 74.9062V74.9902L195.108 85.6562C194.534 86.5521 194.03 87 193.596 87C192.813 87 192.421 85.4603 192.421 82.3809C192.421 80.8691 192.197 80.1133 191.749 80.1133C188.795 79.9453 186.5 79.7214 184.862 79.4414C184.134 79.4414 183.77 80.7572 183.77 83.3887C183.7 85.6283 183.476 86.748 183.098 86.748C183.098 86.874 182.902 86.958 182.51 87C181.587 86.776 181.083 85.9922 180.999 84.6484C180.943 83.6826 180.887 82.0869 180.831 79.8613C180.831 72.3027 181.083 68.5234 181.587 68.5234C181.951 68.4115 182.203 68.3555 182.342 68.3555ZM206.362 66.1719H206.446C210.057 66.1719 212.941 68.1315 215.096 72.0508C215.88 73.9824 216.272 75.8301 216.272 77.5938V78.7695C216.272 81.765 215.012 84.0605 212.493 85.6562C209.763 86.5521 207.72 87 206.362 87H205.774C204.262 87 202.275 86.1322 199.811 84.3965C198.565 83.1367 197.782 81.653 197.46 79.9453C197.292 79.3574 197.208 78.7695 197.208 78.1816V77.5938C197.572 73.9544 198.16 71.7708 198.971 71.043C201.099 67.7956 203.563 66.1719 206.362 66.1719ZM199.979 77.3418C199.979 80.0993 200.735 81.891 202.247 82.7168C203.689 83.8366 205.256 84.3965 206.95 84.3965C209.959 84.0885 211.639 83.6126 211.989 82.9688C213.277 82.2409 213.921 80.7572 213.921 78.5176C213.921 74.5563 212.577 71.5329 209.889 69.4473C209.273 69.1673 208.406 69.0273 207.286 69.0273H205.942C204.164 69.0273 202.989 69.5312 202.415 70.5391C200.847 72.1068 200.063 74.1224 200.063 76.5859C200.063 76.8799 200.035 77.1318 199.979 77.3418ZM222.613 68.0195H222.865C226.602 68.0615 228.926 69.1533 229.836 71.2949V71.3789C229.752 72.2188 229.444 72.6387 228.912 72.6387H228.576C228.058 72.6387 227.274 72.1628 226.224 71.2109C225.916 70.987 225.496 70.875 224.965 70.875H222.613C221.409 70.875 220.569 71.7428 220.093 73.4785C220.093 74.8083 221.857 75.7601 225.384 76.334C227.288 76.9079 228.576 77.7477 229.248 78.8535C230.2 80.4492 230.676 81.513 230.676 82.0449V82.5488C230.676 83.4867 229.752 84.6064 227.904 85.9082C226.098 86.6361 224.503 87 223.117 87H222.445C221.185 87 219.786 86.3841 218.246 85.1523C218.022 84.6344 217.91 84.2705 217.91 84.0605V83.0527C217.91 82.5488 218.134 82.1569 218.582 81.877H219.086C219.646 81.877 220.513 82.6608 221.689 84.2285H224.041C225.273 84.2285 226.084 84.0605 226.476 83.7246C227.26 82.9548 227.652 82.2829 227.652 81.709C227.652 80.1553 225.356 78.8955 220.765 77.9297C218.526 76.9919 217.406 75.5921 217.406 73.7305V73.6465C217.406 71.057 218.75 69.2093 221.437 68.1035C221.913 68.0475 222.305 68.0195 222.613 68.0195Z" fill="#F0DB9A"/>
</svg>
