<svg width="10" height="10" viewBox="0 0 10 10" fill="none" xmlns="http://www.w3.org/2000/svg">
<path fill-rule="evenodd" clip-rule="evenodd" d="M9.68282 4.63608C9.60408 2.87285 8.57432 1.29135 6.99365 0.506079C6.63899 0.330886 6.26506 0.19776 5.87948 0.109412C5.19495 -0.0364706 4.48735 -0.0364706 3.80282 0.109412C3.41536 0.197735 3.0395 0.330853 2.68282 0.506079C1.46436 1.11533 0.558049 2.20862 0.185266 3.51891C-0.187518 4.8292 0.00754772 6.23584 0.722817 7.39525C1.19973 8.15903 1.87788 8.77664 2.68282 9.18024C3.0395 9.35547 3.41536 9.48859 3.80282 9.57691C4.48673 9.72861 5.19557 9.72861 5.87948 9.57691C6.26721 9.48952 6.64318 9.35637 6.99948 9.18024C8.55609 8.41464 9.58416 6.87476 9.69448 5.14358V4.84608C9.69453 4.77591 9.69064 4.7058 9.68282 4.63608ZM5.10946 1.20608C6.28434 1.96332 7.0226 3.24007 7.09279 4.63608H5.10946V1.20608ZM4.26362 0.762748C4.11252 0.70818 3.95871 0.661452 3.80279 0.622748V0.611081C1.94619 1.0775 0.611416 2.701 0.512787 4.61275H2.05862C2.12777 3.04835 2.94927 1.61399 4.26362 0.762748ZM3.80279 9.04025C1.97634 8.58601 0.64889 7.00908 0.512787 5.13191H2.08779C2.12826 5.88906 2.35034 6.62534 2.73529 7.27858C3.1084 7.94097 3.63191 8.50643 4.26362 8.92941C4.11297 8.98068 3.959 9.0216 3.80279 9.05191V9.04025ZM3.1903 7.0219C3.53026 7.60352 4.00425 8.09551 4.5728 8.4569L4.58447 5.12024H2.60697C2.6503 5.79097 2.85007 6.44224 3.1903 7.0219ZM4.57279 4.61274H2.58945C2.65964 3.21673 3.3979 1.93998 4.57279 1.18274V4.61274ZM7.08696 5.12024H5.10946L5.11529 8.4569C5.68568 8.09588 6.16165 7.60391 6.50362 7.0219C6.84425 6.44242 7.04406 5.79105 7.08696 5.12024ZM5.87945 9.02858C5.71543 8.98684 5.5538 8.93621 5.39528 8.87691C6.68835 8.04434 7.50562 6.64392 7.59445 5.10858H9.16362C9.11112 6.02705 8.76097 6.90346 8.16612 7.60524C7.58031 8.32197 6.77801 8.82955 5.87945 9.05191V9.02858ZM5.39528 0.762748C6.71477 1.60912 7.53793 3.04638 7.60028 4.61275H9.19278C9.1523 3.68077 8.80814 2.78759 8.21278 2.06941C7.61349 1.34341 6.79465 0.831636 5.87945 0.611081C5.71612 0.651915 5.55862 0.704415 5.39528 0.762748Z" fill="#262626"/>
</svg>
