<svg width="19" height="16" viewBox="0 0 19 16" fill="none" xmlns="http://www.w3.org/2000/svg">
<path d="M0.296763 8.44399L7.00149 15.1489C7.19288 15.3403 7.44796 15.4453 7.71996 15.4453C7.99225 15.4453 8.24719 15.3401 8.43858 15.1489L9.04732 14.54C9.23856 14.3489 9.34391 14.0937 9.34391 13.8215C9.34391 13.5495 9.23856 13.2857 9.04732 13.0946L5.13588 9.17454L17.5627 9.17454C18.123 9.17454 18.5657 8.73591 18.5657 8.17547L18.5657 7.31467C18.5657 6.75423 18.123 6.27137 17.5627 6.27137L5.0915 6.27137L9.04717 2.32944C9.23841 2.13805 9.34376 1.88976 9.34376 1.61761C9.34376 1.34577 9.23841 1.09386 9.04717 0.902615L8.43843 0.295689C8.24704 0.104298 7.9921 -1.87805e-06 7.71981 -1.90185e-06C7.44781 -1.92563e-06 7.19273 0.105656 7.00134 0.297047L0.296613 7.00177C0.104769 7.19376 -0.000737445 7.45006 1.78413e-05 7.7225C-0.000584905 7.99585 0.104769 8.2523 0.296763 8.44399Z" fill="#C4C4C4"/>
</svg>
