<svg width="127" height="63" viewBox="0 0 127 63" fill="none" xmlns="http://www.w3.org/2000/svg">
<circle cx="25" cy="26" r="13" fill="#FD9654"/>
<path d="M34.4482 15.7672H34.5946C34.9853 15.7672 35.5549 16.581 36.3036 18.2086C36.9547 19.3073 37.5569 20.0559 38.1103 20.4547L38.2079 20.5035C38.4276 20.5035 38.8671 19.9176 39.5263 18.7457C40.633 16.9554 41.3329 16.0602 41.6259 16.0602H42.1142C42.7408 16.0602 43.0989 16.4508 43.1884 17.2321C43.4814 20.292 43.6278 23.0101 43.6278 25.3864V25.8746C43.6278 26.3629 43.4976 26.6071 43.2372 26.6071H43.0419C42.3909 26.6071 42.0653 26.3792 42.0653 25.9235C41.9921 25.9235 41.9433 25.3864 41.9189 24.3121V23.4821C41.9189 20.5849 41.7398 19.1364 41.3817 19.1364C41.0481 19.291 40.5598 19.8281 39.9169 20.7477C39.2984 22.0172 38.7125 22.652 38.1591 22.652C37.5406 22.652 36.9384 22.1474 36.3524 21.1383L35.62 20.4059H35.5224C35.3596 20.4059 35.2294 20.6826 35.1317 21.236C35.1317 21.5859 35.148 22.0416 35.1806 22.6031C35.0911 25.4677 34.8632 26.9 34.497 26.9H34.3017C33.9436 26.9 33.7157 26.6233 33.6181 26.0699L33.5692 25.7281C33.6018 24.0273 33.6181 22.6764 33.6181 21.6754V21.1871C33.6181 21.1546 33.6343 21.1383 33.6669 21.1383L33.6181 21.0406V20.0641C33.6181 19.7223 33.5367 18.8108 33.3739 17.3297C33.4635 16.288 33.8215 15.7672 34.4482 15.7672ZM46.5819 15.7184H50.244C51.8717 15.7184 52.6855 15.8811 52.6855 16.2067V16.6461C52.6855 17.0042 52.246 17.1832 51.3671 17.1832C50.594 17.1832 49.9918 17.3134 49.5605 17.5739C49.5605 22.3265 49.7069 24.7028 49.9999 24.7028C49.9999 25.1341 50.5858 25.4596 51.7577 25.6793C51.9856 25.8177 52.0995 26.013 52.0995 26.2653V26.3141C52.0995 26.6722 51.9205 26.8512 51.5624 26.8512C51.359 26.8837 51.1311 26.9 50.8788 26.9C46.7121 26.9 44.6288 26.721 44.6288 26.3629L44.58 26.1188C44.7265 25.6956 45.1985 25.484 45.996 25.484C47.3306 25.484 47.998 25.3375 47.998 25.0446C48.0305 24.6865 48.0631 24.5074 48.0956 24.5074L48.0468 24.2633L47.7538 17.3785H47.705C46.4517 17.3785 45.6379 17.1018 45.2636 16.5485L45.2148 16.3043C45.2799 15.9137 45.7356 15.7184 46.5819 15.7184ZM65.0878 16.2067C66.748 16.2067 67.8222 17.1344 68.3105 18.9899C68.3105 19.177 68.3267 19.291 68.3593 19.3317C68.2942 19.6897 68.1314 19.8688 67.871 19.8688H67.6757C67.4071 19.8525 66.9677 19.4781 66.3573 18.7457C65.9667 18.3877 65.4133 18.2086 64.6972 18.2086H64.5995C63.1428 18.2086 62.0686 19.1526 61.3769 21.0406C61.3118 21.3743 61.2792 21.6022 61.2792 21.7242C61.4745 23.1891 61.6373 23.9215 61.7675 23.9215C62.2883 24.6702 62.8254 25.0446 63.3788 25.0446H64.1112C65.1936 25.0446 65.9423 24.5888 66.3573 23.6774C66.5933 23.2867 66.8375 23.0914 67.0898 23.0914H67.2362C67.4153 23.0914 67.5618 23.1891 67.6757 23.3844V23.775C67.6757 24.4505 67.3664 25.2317 66.748 26.1188C65.9993 26.6396 65.1204 26.9 64.1112 26.9C62.15 26.9 60.8479 26.1351 60.205 24.6051C59.912 23.8401 59.7655 23.0914 59.7655 22.359C59.7655 20.6093 60.4166 18.9492 61.7187 17.3785C62.5487 16.5973 63.5416 16.2067 64.6972 16.2067H65.0878ZM73.5107 15.7184H73.706C74.2431 15.7184 74.5849 15.9462 74.7314 16.402C75.1545 17.8261 75.6103 19.0631 76.0985 20.1129C77.4332 23.1158 78.1005 25.248 78.1005 26.5094C77.9784 26.7698 77.7831 26.9 77.5146 26.9C76.9123 26.9 76.4403 26.2978 76.0985 25.0934C75.7567 24.2145 75.3824 23.775 74.9755 23.775C74.5035 23.7099 73.9501 23.6774 73.3153 23.6774H72.6806C71.8993 23.6774 71.4273 23.8401 71.2646 24.1656C70.76 25.7607 70.3531 26.5582 70.0439 26.5582H69.5067C69.2056 26.5582 68.994 26.428 68.872 26.1676V25.7281C68.872 25.6386 69.1487 24.8737 69.7021 23.4332C69.9625 22.6357 70.5159 21.3824 71.3622 19.6735C72.2004 17.289 72.7213 16.0358 72.9247 15.9137C73.1444 15.7835 73.3398 15.7184 73.5107 15.7184ZM72.5829 21.4801C72.5829 21.8056 72.9084 21.9684 73.5595 21.9684H74.829C74.829 21.2685 74.5198 20.4547 73.9013 19.527C73.8443 19.527 73.7629 19.4944 73.6571 19.4293C73.2746 19.4293 72.9166 20.1129 72.5829 21.4801ZM81.8114 15.8649H81.9579C84.1308 15.8893 85.4817 16.524 86.0107 17.7692V17.818C85.9618 18.3063 85.7828 18.5504 85.4735 18.5504H85.2782C84.9771 18.5504 84.5214 18.2737 83.911 17.7203C83.732 17.5901 83.4879 17.525 83.1786 17.525H81.8114C81.1116 17.525 80.6233 18.0296 80.3466 19.0387C80.3466 19.8118 81.372 20.3652 83.4228 20.6989C84.5295 21.0325 85.2782 21.5208 85.6689 22.1637C86.2222 23.0914 86.4989 23.7099 86.4989 24.0192V24.3121C86.4989 24.8574 85.9618 25.5084 84.8876 26.2653C83.8378 26.6884 82.9101 26.9 82.1044 26.9H81.7138C80.9814 26.9 80.1676 26.542 79.2724 25.8258C79.1422 25.5247 79.0771 25.3131 79.0771 25.191V24.6051C79.0771 24.3121 79.2073 24.0843 79.4677 23.9215H79.7607C80.0862 23.9215 80.5907 24.3772 81.2743 25.2887H82.6415C83.3577 25.2887 83.8297 25.191 84.0575 24.9957C84.5133 24.5481 84.7411 24.1575 84.7411 23.8239C84.7411 22.9205 83.4065 22.1881 80.7372 21.6266C79.4351 21.0813 78.7841 20.2675 78.7841 19.1852V19.1364C78.7841 17.6308 79.5653 16.5566 81.1278 15.9137C81.4045 15.8811 81.6324 15.8649 81.8114 15.8649ZM91.5526 15.7184H91.748C92.2851 15.7184 92.6269 15.9462 92.7733 16.402C93.1965 17.8261 93.6523 19.0631 94.1405 20.1129C95.4752 23.1158 96.1425 25.248 96.1425 26.5094C96.0204 26.7698 95.8251 26.9 95.5565 26.9C94.9543 26.9 94.4823 26.2978 94.1405 25.0934C93.7987 24.2145 93.4244 23.775 93.0175 23.775C92.5455 23.7099 91.9921 23.6774 91.3573 23.6774H90.7226C89.9413 23.6774 89.4693 23.8401 89.3065 24.1656C88.802 25.7607 88.3951 26.5582 88.0858 26.5582H87.5487C87.2476 26.5582 87.036 26.428 86.914 26.1676V25.7281C86.914 25.6386 87.1907 24.8737 87.744 23.4332C88.0045 22.6357 88.5579 21.3824 89.4042 19.6735C90.2424 17.289 90.7633 16.0358 90.9667 15.9137C91.1864 15.7835 91.3817 15.7184 91.5526 15.7184ZM90.6249 21.4801C90.6249 21.8056 90.9504 21.9684 91.6015 21.9684H92.871C92.871 21.2685 92.5618 20.4547 91.9433 19.527C91.8863 19.527 91.8049 19.4944 91.6991 19.4293C91.3166 19.4293 90.9586 20.1129 90.6249 21.4801ZM12.1093 30.7672H12.2558C12.6464 30.7672 13.2161 31.581 13.9648 33.2086C14.6158 34.3073 15.218 35.0559 15.7714 35.4547L15.869 35.5035C16.0888 35.5035 16.5282 34.9176 17.1874 33.7457C18.2942 31.9554 18.994 31.0602 19.287 31.0602H19.7753C20.4019 31.0602 20.76 31.4508 20.8495 32.2321C21.1425 35.292 21.289 38.0101 21.289 40.3864V40.8746C21.289 41.3629 21.1588 41.6071 20.8983 41.6071H20.703C20.052 41.6071 19.7265 41.3792 19.7265 40.9235C19.6532 40.9235 19.6044 40.3864 19.58 39.3121V38.4821C19.58 35.5849 19.401 34.1364 19.0429 34.1364C18.7092 34.291 18.2209 34.8281 17.578 35.7477C16.9595 37.0172 16.3736 37.652 15.8202 37.652C15.2017 37.652 14.5995 37.1474 14.0136 36.1383L13.2812 35.4059H13.1835C13.0207 35.4059 12.8905 35.6826 12.7929 36.236C12.7929 36.5859 12.8092 37.0416 12.8417 37.6031C12.7522 40.4677 12.5243 41.9 12.1581 41.9H11.9628C11.6047 41.9 11.3769 41.6233 11.2792 41.0699L11.2304 40.7281C11.2629 39.0273 11.2792 37.6764 11.2792 36.6754V36.1871C11.2792 36.1546 11.2955 36.1383 11.328 36.1383L11.2792 36.0406V35.0641C11.2792 34.7223 11.1978 33.8108 11.0351 32.3297C11.1246 31.288 11.4827 30.7672 12.1093 30.7672ZM24.2431 30.7184H27.9052C29.5328 30.7184 30.3466 30.8811 30.3466 31.2067V31.6461C30.3466 32.0042 29.9071 32.1832 29.0282 32.1832C28.2551 32.1832 27.6529 32.3134 27.2216 32.5739C27.2216 37.3265 27.3681 39.7028 27.661 39.7028C27.661 40.1341 28.247 40.4596 29.4189 40.6793C29.6467 40.8177 29.7607 41.013 29.7607 41.2653V41.3141C29.7607 41.6722 29.5816 41.8512 29.2235 41.8512C29.0201 41.8837 28.7922 41.9 28.5399 41.9C24.3733 41.9 22.2899 41.721 22.2899 41.3629L22.2411 41.1188C22.3876 40.6956 22.8596 40.484 23.6571 40.484C24.9918 40.484 25.6591 40.3375 25.6591 40.0446C25.6916 39.6865 25.7242 39.5074 25.7567 39.5074L25.7079 39.2633L25.4149 32.3785H25.3661C24.1129 32.3785 23.2991 32.1018 22.9247 31.5485L22.8759 31.3043C22.941 30.9137 23.3967 30.7184 24.2431 30.7184ZM34.3017 30.8649H34.4482C36.621 30.8893 37.9719 31.524 38.5009 32.7692V32.818C38.4521 33.3063 38.273 33.5504 37.9638 33.5504H37.7685C37.4674 33.5504 37.0116 33.2737 36.4013 32.7203C36.2222 32.5901 35.9781 32.525 35.6689 32.525H34.3017C33.6018 32.525 33.1135 33.0296 32.8368 34.0387C32.8368 34.8118 33.8622 35.3652 35.913 35.6989C37.0198 36.0325 37.7685 36.5208 38.1591 37.1637C38.7125 38.0914 38.9892 38.7099 38.9892 39.0192V39.3121C38.9892 39.8574 38.4521 40.5084 37.3778 41.2653C36.328 41.6884 35.4003 41.9 34.5946 41.9H34.204C33.4716 41.9 32.6578 41.542 31.7626 40.8258C31.6324 40.5247 31.5673 40.3131 31.5673 40.191V39.6051C31.5673 39.3121 31.6975 39.0843 31.9579 38.9215H32.2509C32.5764 38.9215 33.081 39.3772 33.7646 40.2887H35.1317C35.8479 40.2887 36.3199 40.191 36.5478 39.9957C37.0035 39.5481 37.2314 39.1575 37.2314 38.8239C37.2314 37.9205 35.8967 37.1881 33.2274 36.6266C31.9254 36.0813 31.2743 35.2675 31.2743 34.1852V34.1364C31.2743 32.6308 32.0556 31.5566 33.6181 30.9137C33.8948 30.8811 34.1226 30.8649 34.3017 30.8649ZM46.7284 31.4996H47.6562C49.9674 31.4996 51.5624 32.1018 52.4413 33.3063C53.5481 34.3805 54.1015 35.8616 54.1015 37.7496C54.1015 38.7262 53.6457 39.6865 52.7343 40.6305C50.7323 41.4768 49.0559 41.9 47.705 41.9C46.9563 41.9 46.5819 41.2815 46.5819 40.0446C46.0937 37.1149 45.8495 34.5595 45.8495 32.3785V32.2321C45.8495 31.8414 46.1425 31.5973 46.7284 31.4996ZM47.412 33.8922C47.7538 38.0914 48.0468 40.191 48.2909 40.191L48.5351 40.2399C50.5858 39.9388 51.6112 39.6621 51.6112 39.4098C52.3599 38.8971 52.7343 38.2623 52.7343 37.5055C52.7343 36.6591 52.067 35.471 50.7323 33.941C50.2278 33.4202 49.593 33.1598 48.828 33.1598H48.4374C47.7538 33.1598 47.412 33.3877 47.412 33.8434V33.8922ZM57.4218 30.816H57.5194C60.384 31.0358 61.8163 31.2636 61.8163 31.4996L61.8651 31.7438V32.0367C61.8651 32.3297 61.5885 32.4762 61.0351 32.4762C59.6923 32.5087 58.6018 32.525 57.7636 32.525H57.7148C56.9335 32.525 56.5429 32.7366 56.5429 33.1598C56.7056 34.2828 56.8684 35.0315 57.0312 35.4059C57.0312 35.528 58.1705 35.6256 60.4491 35.6989C61.3931 35.9267 61.8651 36.236 61.8651 36.6266C61.8651 37.0091 61.2304 37.3183 59.9608 37.5543H59.7167L57.7636 37.359H57.7148C57.3567 37.359 57.1776 37.6357 57.1776 38.1891V39.2145C57.1776 39.8004 57.3404 40.0934 57.6659 40.0934C60.7258 40.248 62.2558 40.3945 62.2558 40.5328C62.6138 40.8258 62.7929 41.0537 62.7929 41.2164C62.7929 41.6396 62.1418 41.8512 60.8398 41.8512C59.9364 41.8837 59.1877 41.9 58.5937 41.9C56.9335 41.8512 56.1034 41.6559 56.1034 41.3141C55.8918 41.3141 55.55 38.2379 55.078 32.0856C55.078 31.6868 55.2408 31.4264 55.5663 31.3043C56.494 30.9788 57.1125 30.816 57.4218 30.816ZM66.8212 30.3033C68.3593 30.3033 69.3196 30.6614 69.7021 31.3776C70.288 32.0042 70.581 32.7366 70.581 33.5748C70.581 34.1608 70.0601 34.9583 69.0185 35.9674C68.9534 36.179 68.9208 36.3255 68.9208 36.4069V36.5045C68.9208 36.8789 69.6207 38.9948 71.0204 42.8522C71.525 44.1217 71.997 44.7565 72.4364 44.7565C73.12 45.1145 73.6083 45.2936 73.9013 45.2936C74.2838 45.2936 74.9511 44.7727 75.9032 43.7311L76.0497 43.6334H76.1474C76.5054 43.6334 76.6845 43.9101 76.6845 44.4635C76.6845 45.375 76.2125 46.1725 75.2685 46.8561L74.7802 46.9049H74.536C73.0712 46.9049 71.7366 46.4329 70.5321 45.4889C70.2392 45.1796 69.4254 43.1451 68.0907 39.3854C67.6757 37.9043 67.2362 36.944 66.7724 36.5045C66.7235 36.5127 66.3329 36.7242 65.6005 37.1393C65.6656 38.9134 65.7144 40.0201 65.747 40.4596C65.747 41.2408 65.5028 41.6315 65.0146 41.6315C64.4937 41.6315 64.2333 41.192 64.2333 40.3131C64.1357 39.7434 64.0868 38.9459 64.0868 37.9205V37.1393C64.0868 36.7242 64.1031 36.2522 64.1357 35.7233C63.8427 33.6562 63.6962 32.3378 63.6962 31.7682C63.6962 31.3206 64.1519 30.8649 65.0634 30.401C65.8365 30.3359 66.4224 30.3033 66.8212 30.3033ZM65.5517 32.5983V34.0143C65.5517 34.763 65.7144 35.1373 66.0399 35.1373L66.3329 35.1862C67.3258 35.1862 68.2209 34.5839 69.0185 33.3795V33.2819C69.0185 32.8912 68.5953 32.4681 67.7489 32.0123C67.0165 31.8496 66.5445 31.7682 66.3329 31.7682C65.8121 31.7682 65.5517 32.0449 65.5517 32.5983ZM73.828 30.816H73.9257C76.7903 31.0358 78.2226 31.2636 78.2226 31.4996L78.2714 31.7438V32.0367C78.2714 32.3297 77.9947 32.4762 77.4413 32.4762C76.0985 32.5087 75.008 32.525 74.1698 32.525H74.121C73.3398 32.525 72.9491 32.7366 72.9491 33.1598C73.1119 34.2828 73.2746 35.0315 73.4374 35.4059C73.4374 35.528 74.5767 35.6256 76.8554 35.6989C77.7994 35.9267 78.2714 36.236 78.2714 36.6266C78.2714 37.0091 77.6366 37.3183 76.3671 37.5543H76.123L74.1698 37.359H74.121C73.7629 37.359 73.5839 37.6357 73.5839 38.1891V39.2145C73.5839 39.8004 73.7467 40.0934 74.0722 40.0934C77.1321 40.248 78.662 40.3945 78.662 40.5328C79.0201 40.8258 79.1991 41.0537 79.1991 41.2164C79.1991 41.6396 78.5481 41.8512 77.246 41.8512C76.3427 41.8837 75.594 41.9 74.9999 41.9C73.3398 41.8512 72.5097 41.6559 72.5097 41.3141C72.2981 41.3141 71.9563 38.2379 71.4843 32.0856C71.4843 31.6868 71.647 31.4264 71.9726 31.3043C72.9003 30.9788 73.5188 30.816 73.828 30.816ZM85.4247 31.2067C87.0849 31.2067 88.1591 32.1344 88.6474 33.9899C88.6474 34.177 88.6636 34.291 88.6962 34.3317C88.6311 34.6897 88.4683 34.8688 88.2079 34.8688H88.0126C87.744 34.8525 87.3046 34.4781 86.6942 33.7457C86.3036 33.3877 85.7502 33.2086 85.0341 33.2086H84.9364C83.4797 33.2086 82.4055 34.1526 81.7138 36.0406C81.6487 36.3743 81.6161 36.6022 81.6161 36.7242C81.8114 38.1891 81.9742 38.9215 82.1044 38.9215C82.6252 39.6702 83.1623 40.0446 83.7157 40.0446H84.4482C85.5305 40.0446 86.2792 39.5888 86.6942 38.6774C86.9302 38.2867 87.1744 38.0914 87.4267 38.0914H87.5732C87.7522 38.0914 87.8987 38.1891 88.0126 38.3844V38.775C88.0126 39.4505 87.7034 40.2317 87.0849 41.1188C86.3362 41.6396 85.4573 41.9 84.4482 41.9C82.4869 41.9 81.1848 41.1351 80.5419 39.6051C80.2489 38.8401 80.1024 38.0914 80.1024 37.359C80.1024 35.6093 80.7535 33.9492 82.0556 32.3785C82.8857 31.5973 83.8785 31.2067 85.0341 31.2067H85.4247ZM90.3564 31.0602C90.8121 31.0602 91.0399 31.4183 91.0399 32.1344C91.1132 34.6735 91.2597 35.943 91.4794 35.943C91.7235 36.0244 92.456 36.0895 93.6767 36.1383C95.4996 36.1383 96.411 36.0081 96.411 35.7477C96.4761 35.6093 96.5087 35.3489 96.5087 34.9664V32.0856C96.5901 31.4345 96.8179 31.109 97.1923 31.109H97.3876C97.7538 31.109 98.0142 32.3623 98.1689 34.8688V34.9176L97.7782 41.1188C97.4446 41.6396 97.1516 41.9 96.8993 41.9C96.4436 41.9 96.2157 41.0048 96.2157 39.2145C96.2157 38.3356 96.0855 37.8961 95.8251 37.8961C94.108 37.7985 92.7733 37.6683 91.8212 37.5055C91.398 37.5055 91.1864 38.2705 91.1864 39.8004C91.1457 41.1025 91.0155 41.7535 90.7958 41.7535C90.7958 41.8268 90.6819 41.8756 90.454 41.9C89.9169 41.7698 89.6239 41.3141 89.5751 40.5328C89.5426 39.9713 89.51 39.0436 89.4774 37.7496C89.4774 33.3551 89.6239 31.1578 89.9169 31.1578C90.1285 31.0927 90.275 31.0602 90.3564 31.0602ZM104.321 29.7906H104.37C106.47 29.7906 108.146 30.93 109.399 33.2086C109.855 34.3317 110.083 35.4059 110.083 36.4313V37.1149C110.083 38.8564 109.35 40.191 107.886 41.1188C106.299 41.6396 105.111 41.9 104.321 41.9H103.979C103.1 41.9 101.945 41.3955 100.513 40.3864C99.7883 39.6539 99.3326 38.7913 99.1454 37.7985C99.0478 37.4567 98.9989 37.1149 98.9989 36.7731V36.4313C99.2105 34.3154 99.5523 33.0459 100.024 32.6227C101.261 30.7347 102.694 29.7906 104.321 29.7906ZM100.61 36.2848C100.61 37.888 101.05 38.9296 101.929 39.4098C102.767 40.0608 103.678 40.3864 104.663 40.3864C106.413 40.2073 107.389 39.9306 107.593 39.5563C108.341 39.1331 108.716 38.2705 108.716 36.9684C108.716 34.6653 107.934 32.9075 106.372 31.6949C106.014 31.5322 105.509 31.4508 104.858 31.4508H104.077C103.044 31.4508 102.36 31.7438 102.026 32.3297C101.115 33.2412 100.659 34.413 100.659 35.8453C100.659 36.0162 100.643 36.1627 100.61 36.2848ZM113.769 30.8649H113.916C116.089 30.8893 117.44 31.524 117.969 32.7692V32.818C117.92 33.3063 117.741 33.5504 117.432 33.5504H117.236C116.935 33.5504 116.479 33.2737 115.869 32.7203C115.69 32.5901 115.446 32.525 115.137 32.525H113.769C113.07 32.525 112.581 33.0296 112.305 34.0387C112.305 34.8118 113.33 35.3652 115.381 35.6989C116.488 36.0325 117.236 36.5208 117.627 37.1637C118.18 38.0914 118.457 38.7099 118.457 39.0192V39.3121C118.457 39.8574 117.92 40.5084 116.846 41.2653C115.796 41.6884 114.868 41.9 114.062 41.9H113.672C112.939 41.9 112.126 41.542 111.23 40.8258C111.1 40.5247 111.035 40.3131 111.035 40.191V39.6051C111.035 39.3121 111.165 39.0843 111.426 38.9215H111.719C112.044 38.9215 112.549 39.3772 113.232 40.2887H114.6C115.316 40.2887 115.788 40.191 116.016 39.9957C116.471 39.5481 116.699 39.1575 116.699 38.8239C116.699 37.9205 115.364 37.1881 112.695 36.6266C111.393 36.0813 110.742 35.2675 110.742 34.1852V34.1364C110.742 32.6308 111.523 31.5566 113.086 30.9137C113.363 30.8811 113.59 30.8649 113.769 30.8649Z" fill="white"/>
</svg>
