<svg width="14" height="14" viewBox="0 0 14 14" fill="none" xmlns="http://www.w3.org/2000/svg">
<path fill-rule="evenodd" clip-rule="evenodd" d="M10.1968 7.73499L11.9876 9.52582C12.0785 9.59908 12.1506 9.6931 12.1976 9.79999C12.2382 9.90593 12.2561 10.0192 12.2501 10.1325C12.2021 10.6266 11.9977 11.0925 11.6668 11.4625C11.4455 11.7079 11.1726 11.9011 10.8676 12.0283C10.5853 12.1571 10.2795 12.2266 9.96927 12.2325H9.89927C9.55901 12.231 9.22226 12.1636 8.9076 12.0342C8.59138 11.8979 8.30574 11.6995 8.0676 11.4508L2.53177 5.91499C2.01756 5.40813 1.73483 4.71185 1.7501 3.98999C1.77796 3.3653 2.06044 2.77926 2.53177 2.36832C2.90489 2.03508 3.37524 1.83058 3.87343 1.78499C3.98821 1.77754 4.1033 1.79342 4.21177 1.83166C4.31917 1.87568 4.41644 1.94118 4.4976 2.02416L6.28843 3.79166C6.37446 3.88286 6.43833 3.99264 6.4751 4.11249C6.51376 4.23096 6.52376 4.35691 6.50427 4.47999C6.44418 4.99494 6.21431 5.47521 5.85093 5.84499L5.66427 6.01999L7.9976 8.35332C8.03298 8.31008 8.07102 8.26948 8.10992 8.22796C8.12873 8.20787 8.14775 8.18758 8.16677 8.16666C8.53407 7.79687 9.01461 7.56071 9.53177 7.49582C9.65386 7.48303 9.77727 7.49696 9.89343 7.53666C10.0065 7.58245 10.1095 7.64981 10.1968 7.73499ZM10.6515 11.5383C10.8709 11.4471 11.0694 11.3121 11.2349 11.1417C11.4831 10.8238 11.6258 10.4363 11.6432 10.0333C11.6492 10.0025 11.6492 9.97082 11.6432 9.94C11.6292 9.90928 11.6094 9.88155 11.5849 9.85833L9.79988 8.10833C9.76751 8.07844 9.72995 8.05472 9.68905 8.03833C9.64869 8.02948 9.6069 8.02948 9.56655 8.03833C9.00014 8.11466 8.4996 8.44549 8.20738 8.93667L8.03238 9.24L4.75405 5.9675L5.06905 5.7925C5.19959 5.71775 5.31931 5.62551 5.42488 5.51833C5.72178 5.22975 5.91288 4.84961 5.96738 4.43917C5.97557 4.39678 5.97557 4.35322 5.96738 4.31083C5.95527 4.27094 5.93319 4.2348 5.90321 4.20583L4.09488 2.415C4.04978 2.36551 3.98677 2.33611 3.91988 2.33333C3.54866 2.37349 3.19858 2.52614 2.91655 2.77083C2.55667 3.09243 2.34559 3.54836 2.33321 4.03083C2.31576 4.30866 2.35752 4.58702 2.45571 4.8475C2.5621 5.10527 2.71876 5.33926 2.91655 5.53583L8.45238 11.06C8.64904 11.2632 8.88803 11.4205 9.15238 11.5208C9.41318 11.6269 9.69349 11.6766 9.97488 11.6667C10.2067 11.6691 10.4367 11.6255 10.6515 11.5383Z" fill="#1D1D1B"/>
<path d="M5.1685 4.61418C5.09753 4.61459 5.0297 4.58492 4.98183 4.53251L3.71017 3.26668C3.66017 3.21523 3.63286 3.1459 3.63433 3.07418C3.63939 3.01414 3.66638 2.95807 3.71017 2.91668C3.73417 2.88902 3.76407 2.86709 3.79767 2.85251H3.90267C3.93545 2.84648 3.96905 2.84648 4.00183 2.85251C4.03333 2.86782 4.06118 2.8897 4.0835 2.91668L5.361 4.14168C5.46176 4.24573 5.46176 4.41096 5.361 4.51501C5.33074 4.54755 5.29255 4.57167 5.25017 4.58501C5.22445 4.59852 5.19696 4.60834 5.1685 4.61418Z" fill="#1D1D1B"/>
<path d="M10.9316 10.3775C10.8968 10.383 10.8614 10.383 10.8266 10.3775C10.7949 10.3622 10.7654 10.3426 10.7391 10.3192L9.47328 9.04749C9.42057 8.9974 9.391 8.9277 9.39161 8.85499C9.39259 8.78431 9.42203 8.71701 9.47328 8.66832C9.49763 8.64247 9.52755 8.62252 9.56078 8.60999C9.59356 8.60396 9.62716 8.60396 9.65994 8.60999C9.69473 8.60453 9.73016 8.60453 9.76494 8.60999C9.79817 8.62252 9.8281 8.64247 9.85244 8.66832L11.1474 9.91666C11.2497 10.0246 11.2497 10.1937 11.1474 10.3017C11.1181 10.3283 11.0846 10.35 11.0483 10.3658C11.0102 10.3754 10.9709 10.3793 10.9316 10.3775Z" fill="#1D1D1B"/>
</svg>
