<svg width="11" height="10" viewBox="0 0 11 10" fill="none" xmlns="http://www.w3.org/2000/svg">
<path d="M10.2951 4.83458L6.52535 1.01039C6.41774 0.901227 6.27432 0.841309 6.12139 0.841309C5.96829 0.841309 5.82495 0.901313 5.71734 1.01039L5.37508 1.35767C5.26755 1.46666 5.20831 1.61224 5.20831 1.76746C5.20831 1.9226 5.26755 2.07308 5.37508 2.18207L7.5743 4.41791H0.587253C0.272229 4.41791 0.0233154 4.66808 0.0233154 4.98773V5.4787C0.0233154 5.79835 0.272229 6.07375 0.587253 6.07375H7.59925L5.37516 8.32207C5.26763 8.43124 5.2084 8.57285 5.2084 8.72807C5.2084 8.88312 5.26763 9.0268 5.37516 9.13588L5.71743 9.48205C5.82504 9.59121 5.96838 9.6507 6.12148 9.6507C6.27441 9.6507 6.41783 9.59043 6.52544 9.48127L10.2952 5.65717C10.4031 5.54766 10.4624 5.40148 10.462 5.24609C10.4623 5.09018 10.4031 4.94391 10.2951 4.83458Z" fill="#4A4A4A"/>
</svg>
