<svg width="18" height="16" viewBox="0 0 18 16" fill="none" xmlns="http://www.w3.org/2000/svg">
<path d="M14.3699 10.0498C14.2895 10.1249 14.2281 10.2152 14.1899 10.3143C14.1647 10.4194 14.1647 10.5283 14.1899 10.6335L14.7799 14.2174C14.8325 14.4971 14.7979 14.7847 14.6799 15.0473C14.5601 15.3126 14.3587 15.5407 14.0999 15.7039C13.8434 15.8683 13.5426 15.966 13.2299 15.9866C12.9184 15.9983 12.6096 15.9287 12.3399 15.786L9.14991 14.1718C9.04313 14.117 8.92244 14.0887 8.79991 14.0898C8.67421 14.0888 8.55032 14.117 8.43991 14.1718L5.26991 15.786C4.99363 15.921 4.68317 15.9871 4.36991 15.9775C3.90099 15.9495 3.4667 15.7427 3.17361 15.4077C2.88052 15.0727 2.75574 14.6406 2.82991 14.2174L3.46991 10.6335C3.49999 10.5288 3.49999 10.4189 3.46991 10.3143C3.43922 10.2142 3.38066 10.1231 3.29991 10.0498L0.48991 7.46898C0.280196 7.2671 0.131967 7.01875 0.0599096 6.74853C-0.0199699 6.4798 -0.0199699 6.19651 0.0599096 5.92777C0.17058 5.66288 0.357043 5.42985 0.59991 5.25293C0.834483 5.07282 1.11759 4.95318 1.41991 4.90639L5.10991 4.39569C5.22898 4.37614 5.34175 4.33252 5.43991 4.26802C5.53723 4.2003 5.61597 4.11289 5.66991 4.01267L7.26991 0.875549C7.40252 0.614177 7.61413 0.392724 7.87991 0.237181C8.42619 -0.0790603 9.12363 -0.0790603 9.66991 0.237181C9.93569 0.392724 10.1473 0.614177 10.2799 0.875549L11.8899 4.01267C11.9407 4.11472 12.02 4.20279 12.1199 4.26802C12.217 4.33428 12.3302 4.37809 12.4499 4.39569L16.1399 4.90639C16.4422 4.95318 16.7253 5.07282 16.9599 5.25293C17.1896 5.43691 17.362 5.67281 17.4599 5.93689C17.5398 6.20563 17.5398 6.48892 17.4599 6.75765C17.3879 7.02786 17.2396 7.27622 17.0299 7.4781L14.3699 10.0498Z" fill="#E7BE48"/>
</svg>
