<svg width="12" height="12" viewBox="0 0 12 12" fill="none" xmlns="http://www.w3.org/2000/svg">
<path fill-rule="evenodd" clip-rule="evenodd" d="M10.8592 8.43251L9.06833 6.64751C8.98027 6.55769 8.87238 6.48977 8.75333 6.44917C8.63475 6.41133 8.50942 6.39939 8.38583 6.41417C7.86867 6.47906 7.38813 6.71522 7.02083 7.08501L7.02082 7.08501C6.95666 7.14918 6.89833 7.20751 6.84583 7.27167L4.5125 4.93834C4.579 4.88475 4.6414 4.82626 4.69916 4.76334C5.08446 4.41113 5.33765 3.93768 5.41666 3.42167C5.43433 3.2962 5.42234 3.16834 5.38166 3.04834C5.33959 2.93 5.27186 2.82243 5.18333 2.73334L3.39833 0.98334C3.31335 0.881644 3.20537 0.801658 3.08333 0.750006C2.97167 0.727537 2.85665 0.727537 2.74499 0.750006C2.25294 0.799222 1.78925 1.00349 1.42083 1.33334C1.1893 1.54017 1.00267 1.79232 0.872495 2.07417C0.739132 2.35725 0.667546 2.66546 0.662495 2.97834C0.657004 3.67435 0.932516 4.34315 1.42666 4.83334L6.9625 10.3692C7.44663 10.8581 8.1061 11.1332 8.79416 11.1333H8.86416C9.17105 11.1253 9.47295 11.0538 9.75083 10.9233C10.0277 10.793 10.2756 10.6085 10.48 10.3808C10.811 10.0108 11.0153 9.54494 11.0633 9.05084C11.0752 8.93686 11.0633 8.82165 11.0283 8.71251C10.9906 8.60912 10.9331 8.51403 10.8592 8.43251ZM9.99585 9.21416C9.94499 9.26574 9.87578 9.2951 9.80335 9.29582C9.76883 9.30401 9.73287 9.30401 9.69835 9.29582C9.66661 9.28054 9.63716 9.2609 9.61085 9.23749L8.33335 7.95999C8.2821 7.9113 8.25266 7.844 8.25168 7.77332C8.2524 7.70089 8.28176 7.63168 8.33335 7.58082C8.35917 7.55678 8.38872 7.53708 8.42085 7.52249C8.45363 7.51646 8.48723 7.51646 8.52002 7.52249C8.55475 7.51638 8.59028 7.51638 8.62502 7.52249C8.65714 7.53708 8.68669 7.55678 8.71251 7.58082L9.98418 8.84665C10.0301 8.89789 10.0551 8.96452 10.0542 9.03332C10.0569 9.09863 10.0362 9.16276 9.99585 9.21416ZM2.66917 1.74749C2.63594 1.76002 2.60601 1.77997 2.58167 1.80582C2.52986 1.85411 2.5003 1.92166 2.5 1.99249C2.50007 2.06506 2.52953 2.1345 2.58167 2.18499L3.87083 3.45666C3.9187 3.50906 3.98653 3.53873 4.0575 3.53832C4.13035 3.53966 4.20033 3.50997 4.25 3.45666C4.30138 3.40816 4.3305 3.34064 4.3305 3.26999C4.3305 3.19934 4.30138 3.13181 4.25 3.08332L2.96083 1.80582C2.93649 1.77997 2.90656 1.76002 2.87333 1.74749C2.84055 1.74146 2.80695 1.74146 2.77417 1.74749C2.73938 1.74202 2.70395 1.74202 2.66917 1.74749Z" fill="#FAFAFA"/>
</svg>
